<svg width="137" height="141" viewBox="0 0 137 141" fill="none" xmlns="http://www.w3.org/2000/svg">
<path d="M122.81 114.016C122.162 99.3949 110.956 87.0324 95.8441 87.0324C81.9057 87.0324 67.9673 87.0324 54.0289 87.0324C54.0289 72.6387 54.0289 58.2626 54.0289 43.8689C54.0289 29.7553 41.6139 16.2372 27.0451 16.8851C12.4237 17.5505 0.0612793 28.7397 0.0612793 43.8689C0.0612793 67.2455 0.0612793 90.6396 0.0612793 114.016C0.0612793 128.603 12.4237 141 27.0451 141C49.9839 141 72.9053 141 95.8441 141C109.958 141 123.476 128.585 122.81 114.016Z" fill="#FF0000"/>
<path d="M136.976 97.1535C136.329 82.5322 125.122 70.1697 109.993 70.1697C96.0542 70.1697 82.1158 70.1697 68.1774 70.1697C68.1774 55.776 68.1774 41.3999 68.1774 27.0062C68.1774 12.8927 55.7624 -0.625502 41.1936 0.0223887C26.5898 0.68779 14.2273 11.877 14.2273 27.0062C14.2273 50.3828 14.2273 73.7769 14.2273 97.1535C14.2273 111.74 26.5898 124.137 41.2111 124.137C64.1499 124.137 87.0713 124.137 110.01 124.137C124.106 124.137 137.642 111.722 136.976 97.1535Z" fill="#00FFFF"/>
<path d="M130.235 105.243C129.587 90.622 118.38 78.2596 103.251 78.2596C89.3127 78.2596 75.3743 78.2596 61.4359 78.2596C61.4359 63.8659 61.4359 49.4897 61.4359 35.096C61.4359 20.9825 49.0209 7.46432 34.4521 8.11221C19.8483 8.77761 7.48584 19.9669 7.48584 35.096C7.48584 58.4726 7.48584 81.8667 7.48584 105.243C7.48584 119.83 19.8483 132.227 34.4696 132.227C57.4085 132.227 80.3298 132.227 103.269 132.227C117.365 132.227 130.883 119.812 130.235 105.243Z" fill="white"/>
</svg>
